<?xml version="1.0" encoding="UTF-8" standalone="no"?>
<svg
   xmlns:dc="http://purl.org/dc/elements/1.1/"
   xmlns:cc="http://creativecommons.org/ns#"
   xmlns:rdf="http://www.w3.org/1999/02/22-rdf-syntax-ns#"
   xmlns:svg="http://www.w3.org/2000/svg"
   xmlns="http://www.w3.org/2000/svg"
   xmlns:sodipodi="http://sodipodi.sourceforge.net/DTD/sodipodi-0.dtd"
   xmlns:inkscape="http://www.inkscape.org/namespaces/inkscape"
   width="24"
   height="24"
   viewBox="0 0 24 24"
   fill="none"
   stroke="currentColor"
   stroke-width="2"
   stroke-linecap="round"
   stroke-linejoin="round"
   class="feather feather-codesandbox"
   version="1.1"
   id="svg14"
   sodipodi:docname="codesandbox.svg"
   inkscape:version="0.92.4 (5da689c313, 2019-01-14)">
  <metadata
     id="metadata20">
    <rdf:RDF>
      <cc:Work
         rdf:about="">
        <dc:format>image/svg+xml</dc:format>
        <dc:type
           rdf:resource="http://purl.org/dc/dcmitype/StillImage" />
      </cc:Work>
    </rdf:RDF>
  </metadata>
  <defs
     id="defs18" />
  <sodipodi:namedview
     pagecolor="#ffffff"
     bordercolor="#666666"
     borderopacity="1"
     objecttolerance="10"
     gridtolerance="10"
     guidetolerance="10"
     inkscape:pageopacity="0"
     inkscape:pageshadow="2"
     inkscape:window-width="716"
     inkscape:window-height="480"
     id="namedview16"
     showgrid="false"
     inkscape:zoom="9.8333333"
     inkscape:cx="12"
     inkscape:cy="12"
     inkscape:window-x="0"
     inkscape:window-y="0"
     inkscape:window-maximized="0"
     inkscape:current-layer="svg14" />
  <path
     d="M21 16V8a2 2 0 0 0-1-1.73l-7-4a2 2 0 0 0-2 0l-7 4A2 2 0 0 0 3 8v8a2 2 0 0 0 1 1.73l7 4a2 2 0 0 0 2 0l7-4A2 2 0 0 0 21 16z"
     id="path2"
     style="stroke:#ffffff;stroke-opacity:1" />
  <polyline
     points="7.5 4.21 12 6.81 16.5 4.21"
     id="polyline4"
     style="stroke:#ffffff;stroke-opacity:1" />
  <polyline
     points="7.5 19.79 7.5 14.6 3 12"
     id="polyline6"
     style="stroke:#ffffff;stroke-opacity:1" />
  <polyline
     points="21 12 16.5 14.6 16.5 19.79"
     id="polyline8"
     style="stroke:#ffffff;stroke-opacity:1" />
  <polyline
     points="3.27 6.96 12 12.01 20.73 6.96"
     id="polyline10"
     style="stroke:#ffffff;stroke-opacity:1" />
  <line
     x1="12"
     y1="22.08"
     x2="12"
     y2="12"
     id="line12"
     style="stroke:#ffffff;stroke-opacity:1" />
</svg>
